<svg t="1597922426766" class="icon" viewBox="0 0 1024 1024" version="1.1" xmlns="http://www.w3.org/2000/svg" p-id="21937" width="200" height="200"><path d="M219.428571 950.857143h585.142858V621.714286a36.571429 36.571429 0 1 1 73.142857 0v365.714285a36.571429 36.571429 0 0 1-36.571429 36.571429h-658.285714a36.571429 36.571429 0 0 1-36.571429-36.571429v-365.714285a36.571429 36.571429 0 0 1 73.142857 0V950.857143zM512 98.230857L72.411429 537.819429a36.571429 36.571429 0 1 1-51.785143-51.712L486.107429 20.626286a36.571429 36.571429 0 0 1 51.785142 0l465.481143 465.481143a36.571429 36.571429 0 1 1-51.785143 51.785142L512 98.304z" p-id="21938"></path></svg>