<svg t="1597920769886" class="icon" viewBox="0 0 1024 1024" version="1.1" xmlns="http://www.w3.org/2000/svg" p-id="3167" width="200" height="200"><path d="M64 170.666667v526.933333c0 36.266667 27.733333 64 64 64h793.6c36.266667 0 64-27.733333 64-64V170.666667c0-36.266667-27.733333-64-64-64H128C91.733333 106.666667 64 134.4 64 170.666667z m857.6 526.933333H128V170.666667h793.6v526.933333z m-164.266667 230.4H294.4c-12.8 2.133333-25.6-2.133333-34.133333-12.8s-6.4-25.6 0-36.266667 21.333333-17.066667 34.133333-12.8h460.8c14.933333 2.133333 25.6 17.066667 25.6 32s-10.666667 27.733333-23.466667 29.866667zM631.466667 640H398.933333c-81.066667 0-149.333333-66.133333-149.333333-149.333333s66.133333-149.333333 149.333333-149.333334c21.333333 0 40.533333 4.266667 59.733334 12.8 44.8-81.066667 140.8-119.466667 230.4-89.6s142.933333 119.466667 128 211.2-91.733333 162.133333-185.6 164.266667zM398.933333 407.466667c-29.866667 0-57.6 17.066667-72.533333 42.666666-14.933333 25.6-14.933333 57.6 0 85.333334 14.933333 25.6 42.666667 42.666667 72.533333 42.666666h232.533334c66.133333-2.133333 117.333333-53.333333 121.6-119.466666s-40.533333-123.733333-104.533334-134.4c-64-10.666667-128 27.733333-145.066666 89.6-4.266667 10.666667-10.666667 17.066667-21.333334 19.2-10.666667 2.133333-21.333333 0-27.733333-6.4-14.933333-12.8-34.133333-19.2-55.466667-19.2z" p-id="3168"></path></svg>