<svg t="1597920898090" class="icon" viewBox="0 0 1024 1024" version="1.1" xmlns="http://www.w3.org/2000/svg" p-id="3587" width="200" height="200"><path d="M909.312 762.368V155.648c0-8.192-6.656-14.336-14.336-14.336H129.024c-8.192 0-14.336 6.656-14.336 14.336v606.208c0 8.192 6.656 14.336 14.336 14.336h349.696c3.584 0 6.656 3.072 6.656 6.656v39.936c0 3.584-3.072 6.656-6.656 6.656H333.312c-3.584 0-6.656 3.072-6.656 6.656v39.936c0 3.584 3.072 6.656 6.656 6.656H691.2c3.584 0 6.656-3.072 6.656-6.656v-39.936c0-3.584-3.072-6.656-6.656-6.656h-145.92c-3.584 0-6.656-3.072-6.656-6.656V783.36c0-3.584 3.072-6.656 6.656-6.656h349.696c7.68 0 14.336-6.656 14.336-14.336z m-727.04-568.32h659.456c8.192 0 14.336 6.656 14.336 14.336v409.088H167.936V208.384c0-7.68 6.656-14.336 14.336-14.336z m-14.336 529.92V670.72h688.64v38.4c0 8.192-6.656 14.336-14.336 14.336H167.936v0.512z m583.168-459.776l37.376 37.376-249.344 249.344-159.744-157.184-106.496 103.936-37.376-37.376 143.872-140.8L539.136 476.16l211.968-211.968z" p-id="3588"></path></svg>