\<svg t="1597920850489" class="icon" viewBox="0 0 1024 1024" version="1.1" xmlns="http://www.w3.org/2000/svg" p-id="3447" width="200" height="200"><path d="M992 389.888H32a32 32 0 0 1-32-32v-320a32 32 0 0 1 32-32h960a32 32 0 0 1 32 32v320a32 32 0 0 1-32 32z m-928-64h896v-256H64v256z m320 693.888H32a32 32 0 0 1-32-32V549.888a32 32 0 0 1 32-32h352a32 32 0 0 1 32 32v437.888a32 32 0 0 1-32 32z m-320-64h288V581.888H64v373.888z m928-373.888H576a32 32 0 0 1 0-64h416a32 32 0 0 1 0 64z m0 218.88H576a32 32 0 0 1 0-64h416a32 32 0 0 1 0 64z m0 219.008H576a32 32 0 0 1 0-64h416a32 32 0 0 1 0 64z" p-id="3448"></path></svg>