<svg t="1597919665917" class="icon" viewBox="0 0 1424 1024" version="1.1" xmlns="http://www.w3.org/2000/svg" p-id="12517" width="200" height="200"><path d="M311.652 934.957h801.391V1024h-801.39zM1113.043 1024v-89.043a222.609 222.609 0 0 0 222.61-222.61h89.043A311.652 311.652 0 0 1 1113.043 1024z m-801.39 0A311.652 311.652 0 0 1 0 712.348h89.043a222.609 222.609 0 0 0 222.61 222.609z m1113.043-311.652h-89.044a222.609 222.609 0 0 0-166.956-214.595l-33.392-8.014v-44.522A222.609 222.609 0 0 0 912.696 222.61a228.397 228.397 0 0 0-51.646 6.678l-28.939 7.123-17.363-24.487A288.946 288.946 0 0 0 289.39 378.435v111.304L256 498.2A222.609 222.609 0 0 0 89.043 712.347H0a311.652 311.652 0 0 1 200.348-290.282v-44.522a377.99 377.99 0 0 1 667.826-241.307 292.063 292.063 0 0 1 44.522-3.562 311.652 311.652 0 0 1 311.652 288.5 311.652 311.652 0 0 1 200.348 291.173z" p-id="12518"></path></svg>