<svg t="1597920979654" class="icon" viewBox="0 0 1024 1024" version="1.1" xmlns="http://www.w3.org/2000/svg" p-id="3727" width="200" height="200"><path d="M831 795.86H193.108c-30.327 0-55-24.673-55-55V283.605c0-30.327 24.673-55 55-55H831c30.327 0 55 24.673 55 55V740.86c0 30.328-24.673 55-55 55zM193.108 268.605c-8.271 0-15 6.729-15 15V740.86c0 8.271 6.729 15 15 15H831c8.271 0 15-6.729 15-15V283.605c0-8.271-6.729-15-15-15H193.108z" p-id="3728"></path><path d="M295 646a14.95 14.95 0 0 1-10.606-4.394c-5.858-5.857-5.858-15.355 0-21.213l65.893-65.894-65.893-65.894c-5.858-5.858-5.858-15.355 0-21.213 5.857-5.858 15.355-5.858 21.213 0l76.5 76.5c5.858 5.857 5.858 15.355 0 21.213l-76.5 76.5A14.951 14.951 0 0 1 295 646zM508.5 681.5h-104c-8.284 0-15-6.716-15-15s6.716-15 15-15h104c8.284 0 15 6.716 15 15s-6.716 15-15 15zM793.5 348h-254c-9.665 0-17.5-7.835-17.5-17.5s7.835-17.5 17.5-17.5h254c9.665 0 17.5 7.835 17.5 17.5s-7.835 17.5-17.5 17.5zM279.74 350.161c0 6.236-5.102 11.339-11.339 11.339h-41.803c-6.236 0-11.339-5.102-11.339-11.339v-39.323c0-6.236 5.102-11.339 11.339-11.339h41.803c6.236 0 11.339 5.102 11.339 11.339v39.323zM381.24 350.161c0 6.236-5.102 11.339-11.339 11.339h-41.803c-6.236 0-11.339-5.102-11.339-11.339v-39.323c0-6.236 5.102-11.339 11.339-11.339h41.803c6.236 0 11.339 5.102 11.339 11.339v39.323zM482.74 350.161c0 6.236-5.102 11.339-11.339 11.339h-41.803c-6.236 0-11.339-5.102-11.339-11.339v-39.323c0-6.236 5.102-11.339 11.339-11.339h41.803c6.236 0 11.339 5.102 11.339 11.339v39.323z" p-id="3729"></path></svg>