<svg t="1597920995985" class="icon" viewBox="0 0 1024 1024" version="1.1" xmlns="http://www.w3.org/2000/svg" p-id="3868" width="200" height="200"><path d="M906.2 721.4H580.6c-20 0-35.8 15.9-35.8 35.8s15.9 35.8 35.8 35.8h325.6c20 0 35.8-15.9 35.8-35.8s-15.8-35.8-35.8-35.8zM615.4 577c0 20 15.9 35.8 35.8 35.8h255c20 0 35.8-15.9 35.8-35.8 0-19.5-15.9-35.8-35.8-35.8h-255c-19.9 0-35.8 15.9-35.8 35.8zM906.2 901.1h-255c-20 0-35.8 15.9-35.8 35.8s15.9 35.8 35.8 35.8h255c20 0 35.8-15.9 35.8-35.8s-15.8-35.8-35.8-35.8z" p-id="3869"></path><path d="M142.8 912.4v-51.7c0-176.1 136.2-321 309.2-337.4h0.5c10.8-1 21.5-1.5 32.3-1.5h4.6c38.4-3.1 96.3-11.8 126.5-38.9l14.8-11.8c57.3-44 91.1-112.6 91.1-184.8 0-130-106.5-235.5-237.6-235.5s-237.1 106-237.1 236c0 72.2 33.3 139.8 91.1 184.8l14.8 11.8-17.4 7.2C181 551 81.6 696.4 81.6 860.8v81.9c0 16.9 13.8 30.2 30.7 30.2h447c-14.8-18.9-27.1-38.9-36.9-60.4H142.8z m166.4-627.7c0-95.7 79.4-173.6 176.6-173.6s176.6 77.8 176.6 173.6S583 458.3 485.8 458.3c-97.7-0.1-176.6-77.9-176.6-173.6z" p-id="3870"></path></svg>