<svg t="1597921871936" class="icon" viewBox="0 0 1229 1024" version="1.1" xmlns="http://www.w3.org/2000/svg" p-id="4570" width="200" height="200"><path d="M727.59 511.00400001C817.74800001 467.99 880.38699999 375.63 880.38699999 268.53 880.38699999 120.549 761.05200001 0.147 614.39100001 0.147S348.4 120.549 348.4 268.53c0 107.098 62.674 199.46000001 152.792 242.47400001-224.39599999 55.89-328.166 277.36-328.166 485.40999999 0 14.89 11.96199999 26.87599999 26.643 26.87600001 14.76 0 26.68-12.027 26.68-26.87600001 0-214.46999999 121.399-445.341 388.00999999-445.34100001 266.60400001 0 388.00400001 230.871 388.00400001 445.34100001 0 14.89 11.96 26.87599999 26.678 26.87600001 14.721 0 26.643-12.027 26.64300001-26.87600001 0.074-208.051-103.656-429.522-328.09300001-485.41000001M401.71999999 268.53c0-118.315 95.37-214.58300001 212.67000001-214.583 117.297 0 212.675 96.26799999 212.675 214.583 0 118.27600001-95.376 214.511-212.675 214.511-117.301 0-212.67-96.235-212.66999999-214.511" p-id="4571"></path><path d="M289.591 493.675c12.114-1.162 21.894-10.48 23.806-22.62599999 1.877-12.147-4.674-24.098-15.868-28.93100001-5.36399999-2.321-130.794-58.09700001-120.828-189.135C188.12399999 103.76400001 349.2 85.703 356.177 84.966c14.607-1.42800001 25.34000001-14.541 23.924-29.31999998-1.38000001-14.81199999-14.225-25.601-29.05800001-24.25000003C277.56 38.475 135.41999999 93.01 123.49999999 248.847c-7.32400001 96.92399999 44.313 166.582 95.41100001 207.43-88.82000001 31.206-234.37000001 119.899-216.35399999 364.07199999 1.034 14.118 12.728 24.947 26.52299999 24.94700001 0.69200001 0 1.347 0 2.039-0.077 14.68-1.121 25.71899999-14.041 24.607-28.854-21.62000001-293.563 223.52-321.686 233.865-322.69M1105.17 248.848C1093.283 93.05 951.185 38.513 877.702 31.397c-14.76-1.318-27.679 9.477-29.06 24.21300001-1.415 14.773 9.355 27.928 24 29.35599999 6.86000002 0.655 167.90000001 17.87 179.358 167.978 10.01000001 131.04-115.456 186.853-120.70800001 189.09800001-11.23 4.797-17.787 16.667-15.952 28.812 1.803 12.14600001 11.615 21.581 23.73000001 22.78099999 10.43 1.009 255.568 29.125 233.94999999 322.655-1.111 14.813 9.92600001 27.726 24.608 28.848 0.68999999 0.083 1.345 0.083 2.03300001 0.083 13.8 0 25.494-10.792 26.52700002-24.947 18.05199999-244.097-127.49699999-332.79-216.35400002-363.997 51.10000001-40.923 102.77-110.505 95.336-207.43z" p-id="4572"></path></svg>