<svg t="1597922055203" class="icon" viewBox="0 0 1024 1024" version="1.1" xmlns="http://www.w3.org/2000/svg" p-id="5695" width="200" height="200"><path d="M933.670788 640.593455c0-102.449131-83.092687-185.537939-185.539232-185.53794-102.449131 0-185.540525 83.088808-185.540526 185.53794 0 52.615758 21.947475 100.14901 57.119031 133.885414l-56.256647 97.464889 74.559354-5.365657 32.585697 67.277576 62.484687-108.295758c4.984242 0.384 9.967192 0.575354 15.048404 0.575354 5.079919 0 10.061576-0.191354 15.047111-0.575354l62.484687 108.295758 32.585697-67.277576 74.55806 5.365657-56.255353-97.464889c35.172848-33.829495 57.11903-81.269657 57.11903-133.885414z m-89.607758 95.932767c-25.587071 25.589657-59.703596 39.774384-95.930182 39.774384-36.229172 0-70.344404-14.087758-95.931474-39.774384-25.590949-25.685333-39.774384-59.706182-39.774384-95.932767 0-36.226586 14.087758-70.341818 39.774384-95.931475 25.681455-25.587071 59.703596-39.771798 95.931474-39.771798 36.227879 0 70.343111 14.087758 95.930182 39.771798 25.589657 25.685333 39.774384 59.706182 39.774384 95.931475-0.001293 36.227879-14.089051 70.247434-39.774384 95.932767zM290.894869 245.522101c14.948848 0 27.123071-12.171636 27.218747-27.217455V89.212121L90.692525 245.522101h200.202344z" p-id="5696"></path><path d="M543.727192 729.609051c-12.295758-28.317737-18.53802-58.364121-18.53802-89.466829 0-59.902707 23.338667-116.251152 65.693737-158.585535 42.356364-42.333091 98.733253-65.661414 158.664404-65.661414 29.291313 0 57.625859 5.567354 84.036525 16.223676V120.383354c0-17.856646-14.598465-32.446061-32.460282-32.446061H361.918061v167.513212c-0.095677 17.855354-14.598465 32.446061-32.462869 32.446061H90.692525v535.116282c0 17.857939 14.598465 32.448646 32.462869 32.448647h406.451717l43.889778-76.030707c-12.003556-15.26303-21.99402-31.869414-29.769697-49.821737zM255.694869 327.906263h412.695272c17.863111 0 32.460283 14.590707 32.460283 32.447353 0 17.855354-14.501495 32.446061-32.364606 32.446061H255.694869c-17.864404 0-32.461576-14.590707-32.461576-32.446061-0.001293-17.856646 14.595879-32.447354 32.461576-32.447353z m192.276687 297.545697H254.253253c-17.096404 0-31.021253-14.590707-31.021253-32.443475 0-17.857939 13.924848-32.448646 31.021253-32.448647h193.718303c17.096404 0 31.021253 14.590707 31.021252 32.448647 0 17.852768-13.924848 32.443475-31.021252 32.443475z" p-id="5697"></path><path d="M768.685253 87.919192h64.864969v50.072566h-64.864969zM253.23701 194.801778h64.86497v50.072565h-64.86497zM90.327919 805.064404h64.86497v50.314343h-64.86497z" p-id="5698"></path></svg>