<svg t="1597920613732" class="icon" viewBox="0 0 1024 1024" version="1.1" xmlns="http://www.w3.org/2000/svg" p-id="3026" width="200" height="200"><path d="M722.066286 205.897143l-90.550857-50.249143a192.146286 192.146286 0 0 1-154.258286 71.899429 194.194286 194.194286 0 0 1-155.136-72.045715l-91.355429 50.468572c18.651429 46.811429 17.261714 99.181714-3.949714 145.115428v2.633143l-9.801143 16.969143A192.950857 192.950857 0 0 1 73.142857 464.822857v95.597714c59.099429 8.045714 111.616 42.130286 139.922286 91.574858a183.588571 183.588571 0 0 1 15.798857 166.034285l91.062857 50.395429a192 192 0 0 1 154.550857-71.826286 194.194286 194.194286 0 0 1 155.136 72.118857l91.940572-50.907428a183.588571 183.588571 0 0 1 4.242285-144.457143v-2.706286l9.801143-16.969143A192.877714 192.877714 0 0 1 877.714286 559.835429V464.164571a192.585143 192.585143 0 0 1-141.531429-94.354285l-9.728-16.822857v-1.755429a183.515429 183.515429 0 0 1-4.388571-145.334857z m7.460571 628.370286l1.682286 4.169142 2.267428 4.169143a34.084571 34.084571 0 0 1-1.682285-9.289143l-2.267429 0.950858z m70.070857-501.394286v0.585143c20.699429 36.132571 59.977143 58.733714 102.985143 59.318857h5.851429c23.405714 0 42.422857 18.212571 42.422857 40.667428v157.110858c0 10.971429-4.754286 21.577143-13.019429 29.257142a43.593143 43.593143 0 0 1-30.866285 11.337143h-5.12a120.466286 120.466286 0 0 0-102.912 59.099429v1.316571a110.738286 110.738286 0 0 0-1.755429 115.053715l1.974857 4.827428a39.131429 39.131429 0 0 1 4.388572 30.866286 40.886857 40.886857 0 0 1-19.748572 24.722286l-142.189714 78.628571a44.982857 44.982857 0 0 1-58.441143-15.725714l-2.413714-4.242286a120.393143 120.393143 0 0 0-104.886857-55.954286 120.978286 120.978286 0 0 0-106.861715 55.734857l-2.925714 5.12a43.593143 43.593143 0 0 1-57.929143 14.848L166.034286 866.816a40.886857 40.886857 0 0 1-19.748572-24.722286 39.131429 39.131429 0 0 1 4.388572-30.866285l2.852571-4.827429a110.592 110.592 0 0 0-2.194286-115.273143A120.246857 120.246857 0 0 0 48.274286 631.808H42.422857A41.545143 41.545143 0 0 1 0 591.213714V433.737143c0-10.971429 4.754286-21.504 13.019429-29.184A43.593143 43.593143 0 0 1 43.885714 393.216h6.802286a120.466286 120.466286 0 0 0 102.985143-59.099429v-1.243428c22.016-35.328 22.674286-79.213714 1.755428-115.126857l-2.925714-5.046857a39.131429 39.131429 0 0 1-4.315428-30.793143 40.886857 40.886857 0 0 1 19.748571-24.722286L310.125714 78.482286a44.982857 44.982857 0 0 1 58.441143 15.798857l2.413714 4.242286c21.869714 35.401143 61.952 56.758857 104.886858 55.954285a120.905143 120.905143 0 0 0 106.861714-56.393143l2.925714-5.12a43.593143 43.593143 0 0 1 56.832-14.848l142.409143 79.067429c9.728 5.412571 16.822857 14.336 19.748571 24.722286a39.131429 39.131429 0 0 1-4.388571 30.793143l-2.852571 4.900571a110.592 110.592 0 0 0 2.194285 115.273143z" p-id="3027"></path><path d="M475.428571 694.857143a182.857143 182.857143 0 1 1 0-365.714286 182.857143 182.857143 0 0 1 0 365.714286z m0-300.617143a117.906286 117.906286 0 1 0 0 235.885714 117.906286 117.906286 0 0 0 0-235.812571z" p-id="3028"></path></svg>