<svg t="1597921950205" class="icon" viewBox="0 0 1024 1024" version="1.1" xmlns="http://www.w3.org/2000/svg" p-id="5133" width="200" height="200"><path d="M490.836441 951.143841c-55.584749 0-109.466683-10.825039-160.064615-32.353486-48.895118-20.67704-92.92505-50.354674-130.751871-88.059864-37.705191-37.705191-67.382825-81.735123-88.059865-130.751871-21.406818-50.597933-32.353486-104.479867-32.353486-160.064616 0-48.28697 8.270816-95.600903 24.569189-140.360613 15.690224-43.300154 38.556598-83.559568 67.990973-119.561943 58.868749-72.126381 141.090391-122.481055 231.461218-142.063428 2.189334-0.486519 4.500297-0.729778 6.689631-0.729778 14.717187 0 27.73156 10.46015 30.772301 24.934078 3.648889 16.906521-7.176149 33.813042-24.2043 37.461931-76.505048 16.541632-146.077206 59.233638-195.945362 120.291721C196.127806 350.293384 176.788692 384.349685 163.409431 421.081839 149.543651 459.030289 142.610761 499.046443 142.610761 539.914004c0 92.92505 36.245635 180.376767 102.047274 246.178406 65.801639 65.801639 153.253356 102.047274 246.178406 102.047274 41.35408 0 81.978382-7.176149 120.534981-21.406818 37.218672-13.74415 71.639862-33.569783 102.168903-59.112008 61.544601-51.327711 103.871719-122.602684 119.075425-200.810548 2.797482-14.717187 15.811854-25.542226 30.89393-25.542226 2.067704 0 4.013778 0.243259 6.081483 0.608148 17.028151 3.40563 28.218078 19.947262 24.934078 36.975413-18.001188 92.316902-67.869343 176.606248-140.603873 237.177812-36.245635 30.164153-76.869937 53.638674-120.778239 69.815418-45.367858 16.784891-93.289939 25.298967-142.306688 25.298966zM533.163559 527.751039c-17.39304-0.12163-31.502079-14.230669-31.502079-31.502078V117.737499c0-17.39304 14.109039-31.502079 31.502079-31.502079 55.463119 0 109.345053 10.825039 159.942986 32.231856 48.895118 20.67704 92.803421 50.233044 130.630241 87.938235 37.82682 37.705191 67.382825 81.613493 88.181494 130.508612 21.406818 50.597933 32.353486 104.358237 32.475116 159.821356 0 8.392446-3.284 16.420002-9.243853 22.379855-5.716593 5.838223-13.86578 9.243853-22.258226 9.243854l-379.727758-0.608149z m346.766124-62.517638c-3.52726-38.556598-13.257632-75.77527-29.069486-110.804609-17.27141-38.434969-41.47571-73.221048-71.639862-103.50683-30.285782-30.285782-65.071861-54.368452-103.628459-71.639862-35.150968-15.690224-72.36964-25.420596-110.926239-28.826226v314.047749l315.264046 0.729778z" p-id="5134"></path></svg>