<svg t="1597921971869" class="icon" viewBox="0 0 1024 1024" version="1.1" xmlns="http://www.w3.org/2000/svg" p-id="5273" width="200" height="200"><path d="M701.805714 497.664c102.180571 0 195.291429-83.163429 195.291429-185.344A185.563429 185.563429 0 0 0 711.68 126.902857 185.490286 185.490286 0 0 0 526.336 312.32c0 102.253714 73.289143 185.344 175.469714 185.344z m9.874286-306.541714c66.706286 0 121.124571 54.345143 121.124571 121.051428s-54.418286 121.124571-121.124571 121.124572A121.270857 121.270857 0 0 1 590.628571 312.32 121.417143 121.417143 0 0 1 711.68 191.122286zM406.235429 136.777143H198.582857a71.68 71.68 0 0 0-71.68 71.68V416.182857c0 39.570286 32.109714 71.68 71.68 71.68h207.652572a71.68 71.68 0 0 0 71.68-71.68v-207.725714a71.68 71.68 0 0 0-71.68-71.606857z m7.314285 279.332571a7.460571 7.460571 0 0 1-7.314285 7.387429H198.582857a7.460571 7.460571 0 0 1-7.314286-7.387429v-207.725714c0-4.096 3.364571-7.387429 7.314286-7.387429h207.652572c4.096 0 7.314286 3.437714 7.314285 7.387429v207.725714z m-7.314285 129.974857H198.582857a71.68 71.68 0 0 0-71.68 71.68v207.652572c0 39.570286 32.109714 71.68 71.68 71.68h207.652572a71.68 71.68 0 0 0 71.68-71.68V617.764571a71.68 71.68 0 0 0-71.68-71.68z m7.314285 279.332572a7.460571 7.460571 0 0 1-7.314285 7.314286H198.582857a7.460571 7.460571 0 0 1-7.314286-7.314286V617.764571c0-4.096 3.364571-7.314286 7.314286-7.314285h207.652572c4.096 0 7.314286 3.364571 7.314285 7.314285v207.652572z m402.066286-279.332572H607.817143a71.68 71.68 0 0 0-71.68 71.68v207.652572c0 39.570286 32.109714 71.68 71.68 71.68h207.579428a71.68 71.68 0 0 0 71.68-71.68V617.764571a71.68 71.68 0 0 0-71.533714-71.68z m7.387429 279.332572a7.460571 7.460571 0 0 1-7.387429 7.314286H607.817143a7.460571 7.460571 0 0 1-7.387429-7.314286V617.764571c0-4.096 3.364571-7.314286 7.387429-7.314285h207.579428c4.096 0 7.460571 3.364571 7.460572 7.314285v207.652572h0.073143z" p-id="5274"></path></svg>