<svg t="1597921937771" class="icon" viewBox="0 0 1024 1024" version="1.1" xmlns="http://www.w3.org/2000/svg" p-id="4993" width="200" height="200"><path d="M896 640v-149.333333h-341.333333V384h85.333333V170.666667h-213.333333v213.333333h85.333333v106.666667H170.666667V640H85.333333v213.333333h213.333334v-213.333333H213.333333v-106.666667h298.666667V640h-85.333333v213.333333h213.333333v-213.333333h-85.333333v-106.666667h298.666666V640h-85.333333v213.333333h213.333333v-213.333333h-85.333333zM256 682.666667v128H128v-128h128z m341.333333 0v128h-128v-128h128z m-85.333333-341.333334h-42.666667V213.333333h128v128h-85.333333z m426.666667 469.333334h-128v-128h128v128z" p-id="4994"></path></svg>