<svg t="1597921516861" class="icon" viewBox="0 0 1024 1024" version="1.1" xmlns="http://www.w3.org/2000/svg" p-id="4290" width="200" height="200"><path d="M931.84 580.736l40.96-40.704-71.68-71.36-40.96 40.768c-25.6-20.352-56.32-30.592-92.16-35.648v-56.128h-102.4v56.064c-30.72 5.12-61.44 20.352-92.16 35.648l-40.96-40.768L460.8 539.968l40.96 40.704c-15.36 25.536-30.72 56.064-35.84 91.712H409.6v101.888h56.32c5.12 30.592 20.48 61.184 35.84 91.712l-40.96 35.648 71.68 71.296 40.96-40.704c25.6 20.416 56.32 30.528 92.16 35.648V1024H768v-51.008c30.72-5.12 61.44-20.288 92.16-35.584l40.96 40.704 71.68-71.296-40.96-40.704c15.36-25.472 30.72-56.064 35.84-91.776H1024v-101.888h-56.32c-5.12-35.648-20.48-66.176-35.84-91.712z m-215.04 295.488c-81.92 0-153.6-71.296-153.6-152.832 0-86.592 71.68-152.832 153.6-152.832 87.04 0 153.6 66.24 153.6 152.896a153.6 153.6 0 0 1-153.6 152.896v-0.128zM409.6 101.888H1024v305.728h-102.4V305.6H102.4v611.328h307.2v101.888H0V0h358.4l51.2 101.888z" p-id="4291"></path></svg>