<svg t="1597920589078" class="icon" viewBox="0 0 1024 1024" version="1.1" xmlns="http://www.w3.org/2000/svg" p-id="2886" width="200" height="200"><path d="M978.17186187 822.68918518v-259.0457384h-414.25224692v-103.56306173h259.04573839c85.61213102 0 155.48267668-69.59437748 155.48267669-155.48267667 0-88.64998083-75.6700771-159.90136731-164.32005794-154.93034035-15.46541722-44.18690634-50.53877413-80.3649359-97.48736212-95.83035312-43.91073817-14.63691274-90.03082166-8.83738127-127.86586021 13.80840823-47.77709247-46.67241982-111.84810667-73.46073179-180.06164333-73.46073178-104.94390255 0-198.01257403 63.51867787-238.0569579 158.52052649-70.97521831 14.36074457-124.55184224 77.05091792-124.55184222 152.16865868 0 85.61213102 69.59437748 155.48267668 155.48267666 155.48267669h258.76957025v103.56306173h-414.25224691v259.04573839H-5.81530864v207.12612346h207.12612346v-207.12612346h-51.91961496v-155.48267666h310.68918519v155.48267666h-51.91961495v207.12612346h207.12612347v-207.12612346h-51.91961496v-155.48267666h310.6891852v155.48267666h-51.91961495v207.12612346h207.12612344v-207.12612346h-51.09111043zM201.31081482 356.79349149c-28.44532095 0-51.91961495-23.19812583-51.91961496-51.91961496s23.19812583-51.91961495 48.88176514-51.91961493c1.10467265 0.27616816 5.5233633 0.55233633 6.62803595 0.82850448 24.02663031 1.38084082 47.22475615-14.63691274 53.57662394-38.9397112 17.67476253-69.04204115 79.26026325-117.09530179 149.95931338-117.09530179 53.02428761 0 101.90605275 27.06448014 130.62754187 72.35605912 9.3897176 14.63691274 25.40747114 23.47429398 42.52989734 24.02663032 16.57008987 0 33.69251609-8.00887677 43.63457001-22.09345316 13.2560719-19.05560336 36.7303659-26.78831197 58.27148273-19.60793968 23.75046215 8.00887677 38.38737488 31.75933893 34.52102059 56.61447372-3.0378498 19.88410785 5.79953147 39.49204754 22.36962133 50.53877414 16.84625804 11.04672658 38.38737488 11.59906291 55.50980108 1.38084082 35.07335691-20.98878051 78.15559058 6.62803595 78.15559059 44.18690633 0 28.44532095-23.19812583 51.91961495-51.91961495 51.91961495H201.31081482z" p-id="2887"></path></svg>