
<svg t="1597921472010" class="icon" viewBox="0 0 1024 1024" version="1.1" xmlns="http://www.w3.org/2000/svg" p-id="4149" width="200" height="200"><path d="M734.550697 958.642424c-8.921212 7.074909-17.596768 9.649131-26.331798 11.968647-29.260283 7.770505-59.261414 11.006707-89.310383 12.801293-36.893737 2.205737-73.876687 3.856808-110.827314 3.978343-52.548525 0.170667-105.076364-2.067394-157.182707-9.541818-14.540283-2.085495-28.854303-5.960404-43.121777-9.607758-4.679111-1.197253-8.878545-4.262788-13.296485-6.47499l0.038788-1.994989c3.268525-1.666586 6.370263-3.934384 9.835313-4.896324 16.513293-4.583434 33.139071-8.763475 49.698909-13.182707 7.797657-2.081616 15.703919-3.917576 23.272727-6.657293 25.70602-9.309091 39.178343-28.679758 42.117172-55.064565 2.053172-18.432 2.27297-37.082505 2.938828-55.647677 0.411152-11.499313 0.098263-11.509657-11.557495-11.509657-90.011152 0.001293-180.022303 0.051717-270.033454-0.041373-18.044121-0.019394-35.89301-1.801051-53.184647-7.531314-29.098667-9.647838-45.891232-30.241616-51.496081-59.689373-2.778505-14.602343-4.364929-29.66497-4.388202-44.523313-0.285737-187.911758-0.218505-375.823515-0.13705-563.735273 0.007758-18.217374 1.313616-36.326141 7.147313-53.849212 9.395717-28.227232 29.063758-45.242182 57.587071-51.657697 12.125091-2.726788 24.785455-3.095273 37.213091-4.443798 2.199273-0.240485 4.446384-0.029737 6.671515-0.034909 214.146586-0.446061 428.294465-0.991677 642.44105-1.250263 40.393697-0.049131 80.810667 0.430545 121.175919 1.863111 23.696808 0.840404 45.849859 7.633455 63.176404 25.380202 14.368323 14.717414 21.043717 33.029172 23.096889 52.888566 1.696323 16.41503 2.283313 33.008485 2.296243 49.524363 0.153859 174.359273 0.161616 348.718545 0.006464 523.077819-0.019394 20.963556 0.830061 41.965899-3.715878 62.798868-8.499717 38.966303-33.794586 63.296646-73.402182 68.702384-11.178667 1.525657-22.540929 2.390626-33.820445 2.413899-89.201778 0.191354-178.403556 0.169374-267.606626-0.033616-6.031515-0.015515-8.467394 1.755798-9.784889 7.641212-3.780525 16.86497-6.653414 33.742869-4.376565 51.066828 3.797333 28.887919 20.721778 47.905616 45.958464 60.541415 20.776081 10.404202 43.143758 15.927596 65.582546 21.218262l23.319272 5.502707z m169.022061-322.063515v-6.169858c0-169.508202-0.032323-339.016404 0.135758-508.523314 0.006465-6.190545-2.178586-7.161535-7.685172-7.158949-255.679354 0.122828-511.356121 0.107313-767.034182 0.108606-8.224323 0-8.230788 0.007758-8.230788 8.190707l-0.001293 506.702869v6.849939h782.815677z" p-id="4150"></path><path d="M265.492758 387.607273c0.792566-32.67103 8.110545-63.154424 27.950545-89.562505 24.382061-32.451232 57.925818-47.379394 97.852768-49.024 26.832162-1.105455 52.39596 3.726222 75.452768 18.203151 29.132283 18.291071 45.49301 45.489131 52.191677 78.518303 7.359354 36.293818 5.524687 72.106667-10.344728 106.174061-17.093818 36.694626-45.622303 59.477333-85.427717 67.647353-31.731071 6.511192-62.440727 3.521939-91.245899-11.819959-35.489616-18.902626-55.00897-49.604525-62.669576-88.307071-2.066101-10.449455-2.548364-21.211798-3.759838-31.829333z m198.846061-1.825616c0.346505-16.532687-1.833374-32.655515-8.117011-48.050425-9.589657-23.497697-26.105535-38.862869-51.970585-41.686626-27.169616-2.96598-49.448081 6.95596-63.40396 30.469172-21.474263 36.18004-21.772929 74.334384-4.227879 112.011636 11.556202 24.813899 33.177859 35.696485 60.082424 35.382303 27.186424-0.320646 47.045818-12.969374 58.422304-37.904808 7.258505-15.904323 9.636202-32.840404 9.214707-50.221252zM616.648475 315.510949c12.08501 22.908121 27.609212 41.112566 51.979637 51.006061 13.381818 5.432889 26.175354 12.684929 38.442666 20.377859 10.524444 6.600404 18.518626 16.18101 24.053657 27.563959 6.252606 12.863354 7.643798 26.488242 2.276848 39.455031-13.172364 31.815111-34.91297 55.934707-69.36307 64.046545-16.034909 3.775354-33.309737 2.901333-50.026021 2.963394-11.230384 0.041374-22.724525-0.835232-33.644606-3.308606-19.671919-4.44897-28.232404-18.61301-25.023353-38.58101 2.26004-14.064485 2.329859-13.765818 16.272808-11.28598 20.26796 3.604687 40.586343 7.065859 61.001697 9.651717 16.137051 2.045414 28.356525-5.979798 38.171151-18.086788 4.693333-5.789737 3.006061-11.746263-0.116363-17.563151-8.190707-15.26303-20.958384-25.333657-36.454142-32.465455-13.568-6.243556-27.410101-12.066909-40.371717-19.413333-17.239919-9.775838-30.598465-23.801535-35.317656-43.601455-9.412525-39.495111 4.867879-80.209455 56.204929-90.847676 14.941091-3.096566 30.413576-4.097293 45.70505-4.902788 13.469737-0.707232 27.119192-0.727919 40.516526 0.629656 16.615434 1.683394 25.14101 12.238869 24.663919 28.849132-0.178424 6.18796-0.032323 13.702465-3.342222 18.150141-4.12703 5.549253-11.302788 0.124121-17.097697-0.601212-10.012444-1.254141-19.917576-3.348687-29.919677-4.728243-11.809616-1.630384-22.963717 0.73697-33.186909 6.873213-8.626424 5.179475-17.095111 10.621414-25.425455 15.818989z" p-id="4151"></path></svg>