<svg t="1597921428567" class="icon" viewBox="0 0 1024 1024" version="1.1" xmlns="http://www.w3.org/2000/svg" p-id="4009" width="200" height="200"><path d="M959.3 723c0-10-8.1-18.1-18.1-18.1H84.3c-10 0-18 8.1-18 18.1v218.5c0 10 8.1 18 18 18h857.1c9.1 0 16.7-6.8 17.9-15.6V723zM199.5 879.8c-28 1.4-51.1-21.6-49.6-49.6 1.2-24 20.7-43.5 44.7-44.7 28-1.4 51.1 21.6 49.6 49.6-1.2 24-20.7 43.5-44.7 44.7z m157.5 0c-28 1.4-51.1-21.6-49.6-49.6 1.2-24 20.7-43.5 44.7-44.7 28-1.4 51.1 21.6 49.6 49.6-1.2 24-20.7 43.5-44.7 44.7z m489.2 1h-249c-21.8 0-41.3-17.8-42.5-39.6-1.3-24.1 18-44.2 41.8-44.2h249c21.8 0 41.3 17.8 42.5 39.6 1.3 24.1-17.9 44.2-41.8 44.2zM66.3 621.6c0 10 8.1 18.1 18 18.1h857.1c9.1 0 16.7-6.8 17.9-15.7V404.3c0-9.9-8.1-18-18-18h-857c-10 0-18 8.1-18 18v217.3z m530.2-141.5h249.7c23.1 0 41.9 18.8 41.9 41.9 0 23.1-18.8 41.9-41.9 41.9H596.5c-23.1 0-41.9-18.8-41.9-41.9 0-23.1 18.8-41.9 41.9-41.9z m-242-11.1c26.1 0 47.2 21.1 47.2 47.2s-21.2 47.2-47.2 47.2c-26.1 0-47.2-21.2-47.2-47.2 0-26.1 21.1-47.2 47.2-47.2z m-157.4 0c26.1 0 47.2 21.1 47.2 47.2s-21.1 47.2-47.2 47.2-47.2-21.2-47.2-47.2c-0.1-26.1 21.1-47.2 47.2-47.2zM84.3 319h857.1c9.1 0 16.7-6.8 17.9-15.6v-219c0-9.9-8.1-18-18-18h-857c-10 0-18 8.1-18 18v216.5c0 10 8.1 18.1 18 18.1z m512.2-163.8h249.7c23.1 0 41.9 18.8 41.9 41.9S869.3 239 846.2 239H596.5c-23.1 0-41.9-18.8-41.9-41.9 0-23.2 18.8-41.9 41.9-41.9z m-242-5.4c26.1 0 47.2 21.1 47.2 47.2s-21.2 47.2-47.2 47.2c-26.1 0-47.2-21.1-47.2-47.2s21.1-47.2 47.2-47.2z m-157.4 0c26.1 0 47.2 21.1 47.2 47.2s-21.1 47.2-47.2 47.2-47.2-21.1-47.2-47.2c-0.1-26.1 21.1-47.2 47.2-47.2z" p-id="4010"></path></svg>